<svg id="Layer_1" data-name="Layer 1" xmlns="http://www.w3.org/2000/svg" xmlns:xlink="http://www.w3.org/1999/xlink" viewBox="0 0 500 500"><defs><style>.cls-1{fill:url(#linear-gradient);}.cls-2{fill:url(#linear-gradient-2);}</style><linearGradient id="linear-gradient" x1="101.97" y1="274.21" x2="255.84" y2="274.21" gradientUnits="userSpaceOnUse"><stop offset="0" stop-color="#03b9ff"/><stop offset="1" stop-color="#0364f1"/></linearGradient><linearGradient id="linear-gradient-2" x1="232.25" y1="241.64" x2="386.12" y2="241.64" xlink:href="#linear-gradient"/></defs><path class="cls-1" d="M244.32,277.46l-56.61-28.15a20.74,20.74,0,0,1-9.38-27.76l49.38-100.07a12.51,12.51,0,0,0-11.22-18H183.87A20.75,20.75,0,0,0,165.26,115l-48.8,98.89-.36-.18-12,24a20.75,20.75,0,0,0,9.35,27.82l56.91,28.31a20.74,20.74,0,0,1,9.38,27.76L126.27,430.1a10.33,10.33,0,0,0,9.26,14.9h36.14a20.75,20.75,0,0,0,18.61-11.57L241.65,329.3l.06,0,11.95-24A20.76,20.76,0,0,0,244.32,277.46Z"/><path class="cls-2" d="M374.6,244.89,318,216.74A20.74,20.74,0,0,1,308.61,189L358,88.91a12.51,12.51,0,0,0-11.22-18H314.15a20.75,20.75,0,0,0-18.61,11.57l-48.8,98.89-.36-.18-12,24A20.77,20.77,0,0,0,243.76,233l56.92,28.3a20.75,20.75,0,0,1,9.38,27.76L256.55,397.53a10.33,10.33,0,0,0,9.26,14.9H302a20.75,20.75,0,0,0,18.61-11.57l51.37-104.13.06,0,11.95-24A20.77,20.77,0,0,0,374.6,244.89Z"/></svg>