<svg id="Layer_1" data-name="Layer 1" xmlns="http://www.w3.org/2000/svg" xmlns:xlink="http://www.w3.org/1999/xlink" viewBox="0 0 1042.57 291.71"><defs><style>.cls-1{fill:url(#linear-gradient);}.cls-2{fill:url(#linear-gradient-2);}.cls-3{fill:#fff;}</style><linearGradient id="linear-gradient" x1="72.29" y1="157.39" x2="151.76" y2="157.39" gradientUnits="userSpaceOnUse"><stop offset="0" stop-color="#03b9ff"/><stop offset="1" stop-color="#0364f1"/></linearGradient><linearGradient id="linear-gradient-2" x1="139.57" y1="140.57" x2="219.04" y2="140.57" xlink:href="#linear-gradient"/></defs><path class="cls-1" d="M145.81,159.07l-29.24-14.54a10.71,10.71,0,0,1-4.84-14.34l25.5-51.68a6.46,6.46,0,0,0-5.79-9.32H114.59a10.7,10.7,0,0,0-9.61,6L79.77,126.24l-.19-.1-6.17,12.42a10.71,10.71,0,0,0,4.82,14.37l29.4,14.62a10.71,10.71,0,0,1,4.84,14.34l-27.63,56a5.33,5.33,0,0,0,4.78,7.69h18.67a10.71,10.71,0,0,0,9.61-6l26.53-53.78h0l6.17-12.42A10.71,10.71,0,0,0,145.81,159.07Z"/><path class="cls-2" d="M213.09,142.25l-29.24-14.54A10.73,10.73,0,0,1,179,113.37l25.51-51.68a6.47,6.47,0,0,0-5.8-9.33H181.88a10.74,10.74,0,0,0-9.62,6l-25.2,51.08-.19-.1-6.17,12.42a10.71,10.71,0,0,0,4.82,14.37l29.4,14.62a10.72,10.72,0,0,1,4.84,14.34l-27.63,56a5.33,5.33,0,0,0,4.78,7.69h18.66a10.74,10.74,0,0,0,9.62-6L211.72,169h0l6.17-12.42A10.71,10.71,0,0,0,213.09,142.25Z"/><path class="cls-3" d="M284.63,166.11c1.17,10.58,11.31,16.75,22.63,16.75,10.43,0,20.72-2.05,20.72-11.31,0-12.35-18.37-15.29-28.07-17.49-13.81-3.09-28.66-9.12-28.66-26.9,0-20,17.34-26.31,35.27-26.31,19.55,0,37.34,9.11,36.45,30.13H327.4c-.15-11.46-10.29-16.46-20.73-16.46-9,0-18.81,1.76-18.81,11,0,9.7,11,12.94,19.84,14.7,15.43,3.38,36.89,8.08,36.89,29.69,0,19.84-18.52,26.75-37.48,26.75s-38.36-9.41-38.65-30.57Z"/><path class="cls-3" d="M390.45,122.75c17.63,0,35,9.11,36.59,28.22H411.46c-2.2-10.73-11-14.4-21.16-14.4-12.2,0-22.19,6.17-22.19,23.07s10,23.08,22.19,23.08c9.7,0,18.81-3.83,20.87-14.11l15.87.14c-2.35,18.67-18.22,27.78-36.74,27.78-21.16,0-37.63-12.05-37.63-36.74S369,122.75,390.45,122.75Z"/><path class="cls-3" d="M511.85,195.06c-8.09,0-12.79-3.08-14.41-9.55-5.43,7.35-15.28,11-25.72,11-21.6-.15-34.68-14.26-34.68-36.74,0-24.69,15.14-37,34.24-37,9.56,0,19.4,3.38,25.58,10.44v-9H511.7v52.91c0,2.94,1.47,4.41,4.56,4.41h3.82v13.52Zm-15.14-35.13c0-13.52-6.61-23.36-21.46-23.36-12.64,0-22.93,6.17-22.93,23.07s10.29,23.08,22.93,23.08C490.68,182.72,496.71,170.81,496.71,159.93Z"/><path class="cls-3" d="M547,91.59V195.06H532V91.59Z"/><path class="cls-3" d="M561.53,159.79c0-21.75,12.49-37,36-37,22.78,0,35.72,15,35.72,36.45v4.41H577c1.47,11.46,7.64,19.69,21.6,19.69,12.2,0,17.34-5.14,18.67-11.17h15.28c-2.2,14.85-13.81,24.55-34,24.55C574.75,196.68,561.53,181.69,561.53,159.79Zm55.4-8.23c-2.49-9.26-6.9-15.73-19.4-15.73s-17.34,6.47-19.69,15.73Z"/><path class="cls-3" d="M657.35,166.11c1.18,10.58,11.32,16.75,22.64,16.75,10.43,0,20.72-2.05,20.72-11.31,0-12.35-18.37-15.29-28.07-17.49C658.82,151,644,144.94,644,127.16c0-20,17.34-26.31,35.27-26.31,19.55,0,37.33,9.11,36.45,30.13H700.12c-.15-11.46-10.29-16.46-20.72-16.46-9,0-18.81,1.76-18.81,11,0,9.7,11,12.94,19.84,14.7,15.43,3.38,36.89,8.08,36.89,29.69,0,19.84-18.52,26.75-37.48,26.75s-38.36-9.41-38.65-30.57Z"/><path class="cls-3" d="M729.52,112.61V96h16.31v16.61Zm.73,82.45V124.22h15v70.84Z"/><path class="cls-3" d="M767.29,225.78V212h28.36c10.59,0,24.84-2.35,25-19.54V185.8c-5.88,7.2-15.29,10.73-25.43,10.73-19.1,0-34.24-11.9-34.24-36.89,0-24.54,15.14-36.89,34.1-36.89,10.28,0,19.69,3.68,25.57,11.46v-10h15v68.05c0,26.31-20.72,33.51-40.12,33.51Zm53.35-66.14c0-13.08-7.64-23.07-21.46-23.07-12.64,0-22.93,6.17-22.93,23.22,0,16.75,10.29,22.93,22.93,22.93C813.73,182.72,820.64,173.16,820.64,159.64Z"/><path class="cls-3" d="M853.71,195.06V91.3h15v42.62c6.32-8.23,15.43-11.32,25-11.32,20.86,0,29.24,16,29.24,34.1v38.36h-15V156.85c0-11.91-5.29-20.58-17.64-20.58-11.75,0-21.6,7.35-21.6,20.58v38.21Z"/><path class="cls-3" d="M946.16,97.77h15.13v10.28c0,7.94-.29,14-6,16.17h30.57V137.3H961V174c0,5.88,2.65,7.5,7.2,7.5h18.23v13.67h-21c-11.46,0-19.25-4.7-19.25-20.73V137.3h-14V124.22h2.65c8.52,0,11.32-4.7,11.32-14.4Z"/></svg>