<svg id="Layer_1" data-name="Layer 1" xmlns="http://www.w3.org/2000/svg" xmlns:xlink="http://www.w3.org/1999/xlink" viewBox="0 0 500 500"><defs><style>.cls-1{fill:#1b2831;}.cls-2{fill:url(#linear-gradient);}.cls-3{fill:url(#linear-gradient-2);}</style><linearGradient id="linear-gradient" x1="160.42" y1="247.29" x2="248.2" y2="247.29" gradientUnits="userSpaceOnUse"><stop offset="0" stop-color="#03b9ff"/><stop offset="1" stop-color="#0364f1"/></linearGradient><linearGradient id="linear-gradient-2" x1="234.74" y1="228.71" x2="322.52" y2="228.71" xlink:href="#linear-gradient"/></defs><rect class="cls-1" x="-2.29" y="-1.14" width="501.43" height="501.43"/><path class="cls-2" d="M241.63,249.14l-32.3-16A11.84,11.84,0,0,1,204,217.25l28.17-57.09a7.13,7.13,0,0,0-6.4-10.29H207.15a11.83,11.83,0,0,0-10.62,6.6l-27.84,56.41-.21-.11-6.81,13.72A11.83,11.83,0,0,0,167,242.36l32.46,16.15a11.82,11.82,0,0,1,5.35,15.83l-30.52,61.88a5.89,5.89,0,0,0,5.28,8.49h20.62a11.82,11.82,0,0,0,10.61-6.6l29.31-59.39h0L247,265A11.85,11.85,0,0,0,241.63,249.14Z"/><path class="cls-3" d="M316,230.56l-32.3-16.05a11.84,11.84,0,0,1-5.34-15.84l28.16-57.09a7.13,7.13,0,0,0-6.4-10.29h-18.6a11.82,11.82,0,0,0-10.62,6.6L243,194.3l-.21-.1L236,207.91a11.84,11.84,0,0,0,5.33,15.87l32.47,16.15a11.84,11.84,0,0,1,5.35,15.84l-30.52,61.87a5.88,5.88,0,0,0,5.28,8.49H274.5a11.82,11.82,0,0,0,10.62-6.6l29.31-59.39h0l6.82-13.71A11.85,11.85,0,0,0,316,230.56Z"/></svg>