<svg id="Layer_1" data-name="Layer 1" xmlns="http://www.w3.org/2000/svg" xmlns:xlink="http://www.w3.org/1999/xlink" viewBox="0 0 1042.57 264.71"><defs><style>.cls-1{fill:url(#linear-gradient);}.cls-2{fill:url(#linear-gradient-2);}.cls-3{fill:#192531;}</style><linearGradient id="linear-gradient" x1="62.44" y1="151.98" x2="141.57" y2="151.98" gradientUnits="userSpaceOnUse"><stop offset="0" stop-color="#03b9ff"/><stop offset="1" stop-color="#0364f1"/></linearGradient><linearGradient id="linear-gradient-2" x1="129.44" y1="135.23" x2="208.57" y2="135.23" xlink:href="#linear-gradient"/></defs><path class="cls-1" d="M135.65,153.65l-29.12-14.48a10.67,10.67,0,0,1-4.82-14.28l25.4-51.46a6.44,6.44,0,0,0-5.77-9.29H104.56a10.68,10.68,0,0,0-9.57,6L69.89,121l-.19-.1-6.15,12.37a10.68,10.68,0,0,0,4.81,14.31l29.27,14.55a10.67,10.67,0,0,1,4.82,14.28L74.94,232.15a5.31,5.31,0,0,0,4.76,7.67H98.28a10.68,10.68,0,0,0,9.58-6l26.42-53.55,0,0L140.45,168A10.67,10.67,0,0,0,135.65,153.65Z"/><path class="cls-2" d="M202.65,136.9l-29.12-14.48a10.68,10.68,0,0,1-4.82-14.28l25.4-51.46a6.44,6.44,0,0,0-5.77-9.29H171.56a10.68,10.68,0,0,0-9.57,6l-25.1,50.87-.18-.1-6.15,12.37a10.67,10.67,0,0,0,4.8,14.31l29.28,14.55a10.68,10.68,0,0,1,4.82,14.28L141.94,215.4a5.32,5.32,0,0,0,4.76,7.67h18.59a10.67,10.67,0,0,0,9.57-6l26.42-53.55,0,0,6.15-12.37A10.68,10.68,0,0,0,202.65,136.9Z"/><path class="cls-3" d="M273.88,160.66c1.17,10.53,11.27,16.68,22.54,16.68,10.39,0,20.63-2.05,20.63-11.27,0-12.29-18.29-15.22-27.95-17.41-13.76-3.08-28.54-9.08-28.54-26.79,0-19.9,17.27-26.19,35.13-26.19,19.46,0,37.17,9.07,36.29,30H316.47c-.15-11.42-10.25-16.39-20.64-16.39-8.92,0-18.73,1.75-18.73,11,0,9.66,11,12.88,19.76,14.64,15.36,3.36,36.73,8,36.73,29.56,0,19.76-18.44,26.64-37.32,26.64s-38.2-9.37-38.49-30.44Z"/><path class="cls-3" d="M379.25,117.48c17.57,0,34.84,9.08,36.45,28.1H400.18c-2.19-10.68-11-14.34-21.07-14.34-12.15,0-22.1,6.15-22.1,23s9.95,23,22.1,23c9.66,0,18.73-3.8,20.78-14.05l15.81.15C413.35,181.88,397.55,191,379.11,191c-21.08,0-37.47-12-37.47-36.59S357.89,117.48,379.25,117.48Z"/><path class="cls-3" d="M500.14,189.49c-8.05,0-12.73-3.08-14.34-9.51-5.42,7.31-15.22,11-25.61,11-21.52-.14-34.54-14.19-34.54-36.59,0-24.58,15.07-36.88,34.1-36.88,9.51,0,19.32,3.37,25.46,10.39V119H500v52.68c0,2.93,1.46,4.39,4.53,4.39h3.81v13.47Zm-15.07-35c0-13.46-6.59-23.27-21.37-23.27-12.59,0-22.83,6.15-22.83,23,0,16.68,10.24,23,22.83,23C479.07,177.19,485.07,165.34,485.07,154.51Z"/><path class="cls-3" d="M535.12,86.46v103H520.19v-103Z"/><path class="cls-3" d="M549.61,154.36c0-21.66,12.44-36.88,35.86-36.88,22.68,0,35.56,14.93,35.56,36.3v4.39H565c1.46,11.41,7.61,19.61,21.51,19.61,12.15,0,17.27-5.12,18.59-11.12H620.3c-2.2,14.78-13.76,24.44-33.81,24.44C562.78,191.1,549.61,176.17,549.61,154.36Zm55.18-8.19c-2.49-9.22-6.88-15.66-19.32-15.66-12.59,0-17.27,6.44-19.61,15.66Z"/><path class="cls-3" d="M645,160.66c1.17,10.53,11.27,16.68,22.54,16.68,10.39,0,20.64-2.05,20.64-11.27,0-12.29-18.3-15.22-28-17.41-13.75-3.08-28.53-9.08-28.53-26.79,0-19.9,17.27-26.19,35.12-26.19,19.46,0,37.17,9.07,36.3,30H687.62c-.14-11.42-10.24-16.39-20.63-16.39-8.93,0-18.74,1.75-18.74,11,0,9.66,11,12.88,19.76,14.64,15.37,3.36,36.74,8,36.74,29.56,0,19.76-18.45,26.64-37.32,26.64s-38.2-9.37-38.5-30.44Z"/><path class="cls-3" d="M716.89,107.38V90.85h16.25v16.53Zm.73,82.11V119h14.93v70.54Z"/><path class="cls-3" d="M754.51,220.08V206.32h28.24c10.54,0,24.73-2.34,24.88-19.47v-6.58c-5.85,7.17-15.22,10.68-25.32,10.68-19,0-34.1-11.85-34.1-36.73,0-24.44,15.08-36.74,34-36.74,10.24,0,19.61,3.66,25.46,11.42V119h14.93v67.76c0,26.19-20.64,33.37-39.95,33.37Zm53.12-65.86c0-13-7.61-23-21.37-23-12.58,0-22.83,6.15-22.83,23.12,0,16.69,10.25,22.83,22.83,22.83C800.75,177.19,807.63,167.68,807.63,154.22Z"/><path class="cls-3" d="M840.56,189.49V86.16h14.93v42.45c6.29-8.2,15.37-11.27,24.88-11.27,20.78,0,29.12,15.95,29.12,33.95v38.2H894.57V151.44c0-11.86-5.27-20.49-17.57-20.49-11.71,0-21.51,7.31-21.51,20.49v38.05Z"/><path class="cls-3" d="M932.62,92.6h15.07v10.25c0,7.9-.29,13.9-6,16.1h30.45v13H947.4v36.59c0,5.85,2.64,7.46,7.17,7.46h18.15v13.61H951.79c-11.41,0-19.17-4.68-19.17-20.63V132h-13.9V119h2.63c8.49,0,11.27-4.69,11.27-14.35Z"/></svg>