<svg id="Layer_1" data-name="Layer 1" xmlns="http://www.w3.org/2000/svg" viewBox="0 0 500 500"><defs><style>.cls-1{fill:#fff;}</style></defs><path class="cls-1" d="M254.6,277.46,198,249.31a20.75,20.75,0,0,1-9.37-27.76L238,121.48a12.51,12.51,0,0,0-11.22-18H194.16A20.74,20.74,0,0,0,175.55,115l-48.8,98.89-.37-.18-11.95,24a20.75,20.75,0,0,0,9.34,27.82l56.92,28.31a20.75,20.75,0,0,1,9.37,27.76L136.56,430.1a10.33,10.33,0,0,0,9.26,14.9H182a20.77,20.77,0,0,0,18.61-11.57L251.94,329.3l.05,0,12-24A20.76,20.76,0,0,0,254.6,277.46Z"/><path class="cls-1" d="M384.88,244.89l-56.61-28.15A20.75,20.75,0,0,1,318.9,189L368.28,88.91a12.51,12.51,0,0,0-11.22-18H324.44a20.74,20.74,0,0,0-18.61,11.57L257,181.32l-.37-.18-12,24A20.76,20.76,0,0,0,254.05,233L311,261.31a20.75,20.75,0,0,1,9.37,27.76l-53.5,108.46a10.33,10.33,0,0,0,9.26,14.9h36.14a20.77,20.77,0,0,0,18.61-11.57l51.37-104.13,0,0,12-24A20.76,20.76,0,0,0,384.88,244.89Z"/></svg>