<svg id="Layer_1" data-name="Layer 1" xmlns="http://www.w3.org/2000/svg" xmlns:xlink="http://www.w3.org/1999/xlink" viewBox="0 0 1135.14 395.86"><defs><style>.cls-1{fill:#1b2831;}.cls-2{fill:url(#linear-gradient);}.cls-3{fill:url(#linear-gradient-2);}.cls-4{fill:#fff;}</style><linearGradient id="linear-gradient" x1="112.58" y1="205.98" x2="191.71" y2="205.98" gradientUnits="userSpaceOnUse"><stop offset="0" stop-color="#03b9ff"/><stop offset="1" stop-color="#0364f1"/></linearGradient><linearGradient id="linear-gradient-2" x1="179.58" y1="189.23" x2="258.72" y2="189.23" xlink:href="#linear-gradient"/></defs><rect class="cls-1" x="-1" y="-3.71" width="1145.57" height="408.86"/><path class="cls-2" d="M185.79,207.65l-29.12-14.48a10.68,10.68,0,0,1-4.82-14.28l25.4-51.46a6.44,6.44,0,0,0-5.77-9.29H154.7a10.68,10.68,0,0,0-9.57,6L120,175l-.18-.1-6.15,12.37a10.67,10.67,0,0,0,4.8,14.31l29.28,14.55a10.68,10.68,0,0,1,4.82,14.28l-27.52,55.78a5.32,5.32,0,0,0,4.76,7.67h18.59a10.67,10.67,0,0,0,9.57-6l26.42-53.55,0,0L190.6,222A10.68,10.68,0,0,0,185.79,207.65Z"/><path class="cls-3" d="M252.79,190.9l-29.11-14.48a10.66,10.66,0,0,1-4.82-14.28l25.39-51.46a6.44,6.44,0,0,0-5.77-9.29H221.71a10.69,10.69,0,0,0-9.58,6L187,158.21l-.19-.1-6.15,12.37a10.68,10.68,0,0,0,4.81,14.31l29.27,14.55a10.67,10.67,0,0,1,4.82,14.28L192.08,269.4a5.32,5.32,0,0,0,4.77,7.67h18.58a10.67,10.67,0,0,0,9.57-6l26.42-53.55,0,0,6.15-12.37A10.68,10.68,0,0,0,252.79,190.9Z"/><path class="cls-4" d="M324,214.66c1.17,10.53,11.27,16.68,22.54,16.68,10.39,0,20.64-2.05,20.64-11.27,0-12.29-18.3-15.22-28-17.41-13.75-3.08-28.54-9.08-28.54-26.79,0-19.9,17.27-26.19,35.13-26.19,19.46,0,37.17,9.07,36.29,30H366.61c-.15-11.42-10.24-16.39-20.63-16.39-8.93,0-18.74,1.75-18.74,11,0,9.66,11,12.88,19.76,14.64,15.37,3.36,36.73,8,36.73,29.56,0,19.76-18.44,26.64-37.32,26.64s-38.19-9.37-38.49-30.44Z"/><path class="cls-4" d="M429.4,171.48c17.56,0,34.83,9.08,36.44,28.1H450.32c-2.19-10.68-11-14.34-21.07-14.34-12.15,0-22.1,6.15-22.1,23s10,23,22.1,23c9.66,0,18.73-3.8,20.78-14.05l15.81.15C463.5,235.88,447.69,245,429.25,245c-21.07,0-37.47-12-37.47-36.59S408,171.48,429.4,171.48Z"/><path class="cls-4" d="M550.29,243.49c-8,0-12.74-3.08-14.35-9.51-5.41,7.31-15.22,11-25.61,11-21.51-.14-34.54-14.19-34.54-36.59,0-24.58,15.08-36.88,34.1-36.88,9.51,0,19.32,3.37,25.47,10.39V173h14.78v52.68c0,2.93,1.46,4.39,4.54,4.39h3.8v13.47Zm-15.08-35c0-13.46-6.58-23.27-21.37-23.27-12.58,0-22.83,6.15-22.83,23,0,16.68,10.25,23,22.83,23C529.21,231.19,535.21,219.34,535.21,208.51Z"/><path class="cls-4" d="M585.26,140.46v103H570.34v-103Z"/><path class="cls-4" d="M599.75,208.36c0-21.66,12.44-36.88,35.86-36.88,22.68,0,35.56,14.93,35.56,36.3v4.39h-56c1.46,11.41,7.61,19.61,21.51,19.61,12.15,0,17.27-5.12,18.59-11.12h15.22c-2.19,14.78-13.75,24.44-33.81,24.44C612.93,245.1,599.75,230.17,599.75,208.36Zm55.18-8.19c-2.49-9.22-6.88-15.66-19.32-15.66-12.59,0-17.27,6.44-19.61,15.66Z"/><path class="cls-4" d="M695.18,214.66c1.17,10.53,11.27,16.68,22.53,16.68,10.4,0,20.64-2.05,20.64-11.27,0-12.29-18.29-15.22-28-17.41-13.76-3.08-28.54-9.08-28.54-26.79,0-19.9,17.27-26.19,35.12-26.19,19.47,0,37.18,9.07,36.3,30H737.77c-.15-11.42-10.25-16.39-20.64-16.39-8.93,0-18.73,1.75-18.73,11,0,9.66,11,12.88,19.75,14.64,15.37,3.36,36.74,8,36.74,29.56,0,19.76-18.44,26.64-37.32,26.64s-38.2-9.37-38.49-30.44Z"/><path class="cls-4" d="M767,161.38V144.85h16.24v16.53Zm.73,82.11V173H782.7v70.54Z"/><path class="cls-4" d="M804.65,274.08V260.32h28.24c10.54,0,24.74-2.34,24.88-19.47v-6.58c-5.85,7.17-15.22,10.68-25.31,10.68-19,0-34.11-11.85-34.11-36.73,0-24.44,15.08-36.74,34-36.74,10.24,0,19.61,3.66,25.46,11.42V173H872.7v67.76c0,26.19-20.63,33.37-40,33.37Zm53.12-65.86c0-13-7.61-23-21.36-23-12.59,0-22.83,6.15-22.83,23.12,0,16.69,10.24,22.83,22.83,22.83C850.9,231.19,857.77,221.68,857.77,208.22Z"/><path class="cls-4" d="M890.7,243.49V140.16h14.93v42.45c6.3-8.2,15.37-11.27,24.88-11.27,20.78,0,29.13,15.95,29.13,33.95v38.2H944.71V205.44c0-11.86-5.27-20.49-17.56-20.49-11.71,0-21.52,7.31-21.52,20.49v38.05Z"/><path class="cls-4" d="M982.76,146.6h15.08v10.25c0,7.9-.3,13.9-6,16.1h30.44v13H997.54v36.59c0,5.85,2.64,7.46,7.18,7.46h18.14v13.61h-20.93c-11.41,0-19.17-4.68-19.17-20.63V186h-13.9V173h2.63c8.49,0,11.27-4.69,11.27-14.35Z"/></svg>